<svg width="33" height="33" viewBox="0 0 33 33" fill="none" xmlns="http://www.w3.org/2000/svg">
<g clip-path="url(#clip0_146_162)">
<path d="M0 0H33V33H0V0Z" fill="#F7DF1E"/>
<path d="M8.67689 27.5772L11.2022 26.0489C11.6894 26.9127 12.1326 27.6436 13.1957 27.6436C14.2147 27.6436 14.8573 27.245 14.8573 25.6945V15.1503H17.9584V25.7384C17.9584 28.9503 16.0756 30.4124 13.3286 30.4124C10.8478 30.4124 9.40779 29.1276 8.67676 27.577M19.6428 27.2449L22.1678 25.783C22.8326 26.8685 23.6965 27.6659 25.2248 27.6659C26.5099 27.6659 27.3292 27.0234 27.3292 26.1373C27.3292 25.0741 26.4875 24.6975 25.0698 24.0774L24.2947 23.7448C22.0572 22.7926 20.5731 21.5964 20.5731 19.0711C20.5731 16.7451 22.3452 14.9729 25.1142 14.9729C27.0857 14.9729 28.5034 15.6597 29.5223 17.454L27.1076 19.0047C26.5759 18.0522 26.0002 17.6757 25.1141 17.6757C24.2058 17.6757 23.6299 18.2516 23.6299 19.0047C23.6299 19.935 24.2058 20.3118 25.5349 20.8878L26.3101 21.22C28.9462 22.3498 30.4303 23.5016 30.4303 26.0931C30.4303 28.8845 28.2374 30.4128 25.2912 30.4128C22.4116 30.4128 20.5508 29.0394 19.6427 27.245" fill="black"/>
</g>
<defs>
<clipPath id="clip0_146_162">
<rect width="33" height="33" fill="white"/>
</clipPath>
</defs>
</svg>
