<svg width="33" height="33" viewBox="0 0 33 33" fill="none" xmlns="http://www.w3.org/2000/svg">
<path d="M4.85047 29.4224L2.25842 0.348633H30.7415L28.1469 29.418L16.4827 32.6518L4.85047 29.4224Z" fill="#1572B6"/>
<path d="M16.5002 30.18L25.9256 27.5669L28.1431 2.72559H16.5002V30.18Z" fill="#33A9DC"/>
<path d="M16.5002 13.259H21.2187L21.5446 9.60755H16.5002V6.04175H25.4417L25.3561 6.99849L24.4795 16.8248H16.5002V13.259Z" fill="white"/>
<path d="M16.5214 22.5197L16.5056 22.5243L12.5346 21.4521L12.2806 18.6082H8.70166L9.20104 24.2071L16.5051 26.2342L16.5214 26.2296V22.5197Z" fill="#EBEBEB"/>
<path d="M20.9156 16.6741L20.486 21.4493L16.509 22.5228V26.2327L23.819 24.2068L23.8727 23.6043L24.493 16.6741H20.9156Z" fill="white"/>
<path d="M16.5124 6.04175V9.60755H7.89937L7.82796 8.80627L7.66554 6.99849L7.5802 6.04175H16.5124ZM16.5003 13.2595V16.8253H12.5792L12.5078 16.024L12.3451 14.2162L12.26 13.2595H16.5003Z" fill="#EBEBEB"/>
</svg>
