<svg width="33" height="33" viewBox="0 0 33 33" fill="none" xmlns="http://www.w3.org/2000/svg">
<path d="M4.90797 29.3587L2.32855 0.428223H30.6714L28.0892 29.3543L16.4827 32.5718L4.90797 29.3587Z" fill="#E44D26"/>
<path d="M16.5 30.1125L25.8787 27.5122L28.0853 2.7937H16.5V30.1125Z" fill="#F16529"/>
<path d="M16.5 13.5237H11.8047L11.4804 9.89006H16.5V6.34204H7.60266L7.68774 7.29388L8.55966 17.0719H16.5V13.5237ZM16.5 22.7387L16.4843 22.743L12.5328 21.6757L12.2804 18.8462H8.71822L9.21528 24.4173L16.4838 26.4349L16.5 26.4305V22.7387Z" fill="#EBEBEB"/>
<path d="M16.4876 13.5237V17.0719H20.8568L20.445 21.6736L16.4876 22.7418V26.4334L23.7618 24.4173L23.8152 23.8179L24.6489 14.4765L24.7353 13.5237H23.7793H16.4876ZM16.4876 6.34204V9.89006H25.0583L25.1295 9.0929L25.2914 7.29388L25.3762 6.34204H16.4876Z" fill="white"/>
</svg>
