<svg width="33" height="33" viewBox="0 0 33 33" fill="none" xmlns="http://www.w3.org/2000/svg">
<g clip-path="url(#clip0_146_106)">
<path d="M32.1588 15.0506L17.9492 0.841506C17.1314 0.023209 15.8042 0.023209 14.9851 0.841506L12.0347 3.79243L15.7776 7.53535C16.6477 7.2417 17.6449 7.43867 18.3382 8.13193C19.0351 8.82957 19.2305 9.8353 18.9296 10.7082L22.5369 14.3158C23.4096 14.015 24.4169 14.2093 25.1135 14.9075C26.0881 15.8813 26.0881 17.4598 25.1135 18.4341C24.8819 18.6658 24.607 18.8496 24.3043 18.975C24.0017 19.1004 23.6773 19.165 23.3497 19.165C23.0221 19.165 22.6977 19.1004 22.3951 18.975C22.0924 18.8496 21.8175 18.6658 21.5859 18.4341C21.238 18.0859 21.0009 17.6426 20.9043 17.16C20.8078 16.6773 20.8561 16.1769 21.0432 15.7217L17.6792 12.3577L17.6787 21.2113C17.9228 21.3314 18.1456 21.4906 18.3385 21.6826C19.3125 22.6563 19.3125 24.2344 18.3385 25.2102C17.3642 26.184 15.7851 26.184 14.8118 25.2102C13.8378 24.2346 13.8378 22.6566 14.8118 21.6826C15.0454 21.4491 15.3229 21.2642 15.6283 21.1386V12.203C15.3226 12.0779 15.045 11.8929 14.8118 11.6588C14.074 10.9215 13.8964 9.83865 14.2748 8.93218L10.5848 5.24211L0.841504 14.9848C0.448421 15.378 0.2276 15.9113 0.2276 16.4673C0.2276 17.0233 0.448421 17.5565 0.841504 17.9497L15.0514 32.1588C15.8697 32.9771 17.1964 32.9771 18.0159 32.1588L32.159 18.0157C32.552 17.6224 32.7728 17.0891 32.7727 16.5331C32.7727 15.9771 32.5518 15.4438 32.1588 15.0506Z" fill="#F34F29"/>
</g>
<defs>
<clipPath id="clip0_146_106">
<rect width="33" height="33" fill="white"/>
</clipPath>
</defs>
</svg>
