<svg width="33" height="33" viewBox="0 0 33 33" fill="none" xmlns="http://www.w3.org/2000/svg">
<path fill-rule="evenodd" clip-rule="evenodd" d="M7.85945 7.57065C8.7147 8.2664 9.03507 8.21277 10.6411 8.1069L25.7839 7.19665C26.1043 7.19665 25.8376 6.87627 25.7303 6.82265L23.2154 5.0049C22.7342 4.6309 22.0921 4.20327 20.8614 4.30915L6.19982 5.3789C5.66357 5.43252 5.5577 5.69927 5.77082 5.91515L7.85945 7.57065ZM8.76695 11.1003V27.0324C8.76695 27.8876 9.19595 28.208 10.1584 28.1558L26.8001 27.1933C27.7626 27.1396 27.8712 26.5511 27.8712 25.8554V10.0291C27.8712 9.33615 27.6044 8.96077 27.0146 9.0144L9.62357 10.0305C8.98145 10.0841 8.76695 10.4045 8.76695 11.1003ZM25.1968 11.9541C25.3041 12.4354 25.1968 12.9166 24.7156 12.9716L23.9126 13.1311V24.8943C23.2168 25.2683 22.5747 25.4814 22.0398 25.4814C21.1832 25.4814 20.9687 25.2146 20.3279 24.413L15.0823 16.1795V24.1449L16.7419 24.5203C16.7419 24.5203 16.7419 25.4828 15.4041 25.4828L11.7122 25.6959C11.6049 25.4814 11.7122 24.9479 12.0862 24.8406L13.0487 24.5739V14.0414L11.7122 13.9328C11.6049 13.4515 11.8717 12.7571 12.6224 12.7035L16.5824 12.4368L22.0412 20.7775V13.3993L20.6483 13.2398C20.5411 12.6499 20.9687 12.2223 21.5049 12.17L25.1968 11.9541ZM4.9692 3.93515L20.2179 2.81315C22.0921 2.65227 22.5733 2.75952 23.7517 3.61477L28.6192 7.03577C29.4222 7.62427 29.6903 7.78515 29.6903 8.4259V27.1933C29.6903 28.3689 29.2613 29.0633 27.7639 29.1705L10.0539 30.2403C8.92782 30.2953 8.39295 30.1344 7.80445 29.385L4.21982 24.7334C3.5777 23.8768 3.30957 23.236 3.30957 22.4866V5.80652C3.30957 4.84402 3.73857 4.0424 4.96782 3.93652" fill="black"/>
</svg>
