<svg width="33" height="33" viewBox="0 0 33 33" fill="none" xmlns="http://www.w3.org/2000/svg">
<g clip-path="url(#clip0_146_72)">
<path d="M5.84384 0.412598H27.1562C30.3876 0.412598 33 3.02501 33 6.25643V26.7438C33 29.9752 30.3876 32.5876 27.1562 32.5876H5.84384C2.61241 32.5876 0 29.9752 0 26.7438V6.25643C0 3.02501 2.61241 0.412598 5.84384 0.412598Z" fill="#001E36"/>
<path d="M11.8251 8.59375C11.4126 8.59375 11.0001 8.59375 10.5739 8.60767C10.1475 8.62134 9.74865 8.62134 9.3774 8.63526C9.00615 8.64892 8.66249 8.64892 8.33249 8.66259C8.01615 8.67625 7.79624 8.67625 7.5624 8.67625C7.46624 8.67625 7.42499 8.73116 7.42499 8.82759V22.9763C7.42499 23.1001 7.4799 23.1553 7.58999 23.1553H10.2576C10.3537 23.1413 10.4226 23.0588 10.4087 22.9627V18.5489C10.6698 18.5489 10.8624 18.5489 11.0001 18.5626C11.1375 18.5762 11.3574 18.5763 11.6874 18.5763C12.8151 18.5763 13.8463 18.4525 14.7812 18.1088C15.675 17.7788 16.4451 17.2013 16.995 16.4313C17.545 15.6613 17.82 14.685 17.82 13.5025C17.82 12.8838 17.7102 12.2926 17.5039 11.7151C17.2854 11.1267 16.943 10.5922 16.5 10.1476C15.9771 9.6396 15.3477 9.25439 14.6574 9.01991C13.8873 8.73116 12.9525 8.59375 11.8251 8.59375ZM12.1319 11.3021C12.6217 11.3114 13.0987 11.3969 13.5437 11.5774C13.9425 11.7287 14.2725 12.0038 14.5063 12.3612C14.7256 12.731 14.8353 13.1555 14.8227 13.5853C14.8227 14.1901 14.685 14.6578 14.3962 15.0014C14.0936 15.3451 13.7087 15.6065 13.2688 15.7303C12.7599 15.8953 12.2237 15.9775 11.6874 15.9775H10.9586C10.7936 15.9775 10.6152 15.9638 10.4226 15.9502V11.3302C10.5187 11.3162 10.7113 11.3026 10.9864 11.3165C11.2476 11.3026 11.5637 11.3026 11.9212 11.3026C11.9917 11.3009 12.0619 11.3007 12.1319 11.3021ZM23.6638 12.0041C22.6875 12.0041 21.8762 12.1552 21.2301 12.4852C20.6389 12.7603 20.13 13.2001 19.7863 13.75C19.4839 14.2589 19.3187 14.8225 19.3187 15.4139C19.3069 15.9003 19.4156 16.3821 19.635 16.8164C19.8921 17.2788 20.2492 17.6781 20.6802 17.9851C21.285 18.3988 21.9414 18.7316 22.6326 18.9751C23.3062 19.2362 23.76 19.4425 23.9802 19.6212C24.2001 19.8001 24.3102 19.9787 24.3102 20.1713C24.3102 20.4188 24.1588 20.6527 23.9389 20.7488C23.6914 20.8726 23.3202 20.9414 22.7976 20.9414C22.2477 20.9414 21.6975 20.8726 21.1749 20.7352C20.5749 20.6012 19.9996 20.3738 19.47 20.0615C19.4287 20.0339 19.3875 20.0203 19.3462 20.0478C19.305 20.0752 19.2913 20.1301 19.2913 20.1713V22.5638C19.2777 22.6739 19.3462 22.7701 19.4427 22.825C19.8886 23.0333 20.3602 23.1813 20.8452 23.2651C21.4639 23.3888 22.0824 23.4437 22.7148 23.4437C23.7048 23.4437 24.5301 23.2927 25.2037 23.0039C25.8225 22.7564 26.3587 22.3303 26.7437 21.7801C27.1041 21.2392 27.2912 20.6013 27.2799 19.9514C27.2935 19.4605 27.1849 18.9738 26.9638 18.5353C26.7024 18.0676 26.3312 17.6827 25.8774 17.3939C25.2136 16.9771 24.5029 16.6401 23.76 16.39C23.4282 16.2527 23.1025 16.1013 22.7837 15.9362C22.605 15.8401 22.44 15.7163 22.3162 15.565C22.2337 15.4549 22.1788 15.3314 22.1788 15.2077C22.1788 15.0839 22.2201 14.9465 22.2887 14.8364C22.3851 14.699 22.5362 14.6026 22.7148 14.5613C22.9762 14.4928 23.265 14.4512 23.5398 14.4649C24.0624 14.4649 24.5711 14.5337 25.08 14.6438C25.5477 14.74 25.9875 14.8913 26.4 15.1115C26.4549 15.1388 26.5237 15.1388 26.6475 15.1115C26.669 15.0956 26.6864 15.0748 26.6984 15.0509C26.7103 15.027 26.7165 15.0006 26.7163 14.9738V12.7327C26.7163 12.6775 26.7024 12.6226 26.6887 12.5677C26.6612 12.5128 26.6062 12.4576 26.5513 12.4439C26.1721 12.2889 25.7747 12.1826 25.3687 12.1276C24.8042 12.0454 24.2344 12.0043 23.6638 12.0041Z" fill="#31A8FF"/>
</g>
<defs>
<clipPath id="clip0_146_72">
<rect width="33" height="33" fill="white"/>
</clipPath>
</defs>
</svg>
