<svg width="33" height="33" viewBox="0 0 33 33" fill="none" xmlns="http://www.w3.org/2000/svg">
<g clip-path="url(#clip0_146_75)">
<path d="M5.85234 0.412598H27.1734C30.3961 0.412598 33.0258 3.0165 33.0258 6.26494V26.761C33.0258 29.9837 30.4219 32.6134 27.1734 32.6134H5.85234C2.60391 32.5876 0 29.9837 0 26.7353V6.26494C0 3.0165 2.60391 0.412598 5.85234 0.412598Z" fill="#330000"/>
<path d="M15.9585 19.6711H10.8281L9.79682 22.8938C9.77104 23.0227 9.66791 23.1 9.53901 23.0743H6.96088C6.8062 23.0743 6.78041 22.9969 6.8062 22.8165L11.2406 10.0805C11.2921 9.95161 11.3179 9.79692 11.3695 9.61646C11.421 9.33286 11.4468 9.02349 11.4468 8.71411C11.421 8.63677 11.4984 8.58521 11.5499 8.55942H15.1078C15.2109 8.55942 15.2624 8.61099 15.2882 8.66255L20.3156 22.8165C20.3671 22.9711 20.3156 23.0485 20.1867 23.0485H17.2992C17.196 23.0743 17.1187 22.9969 17.0671 22.8938L15.9585 19.6711ZM11.6273 16.861H15.1078C15.0304 16.5774 14.9273 16.2165 14.7984 15.8813C14.6695 15.5204 14.5406 15.1079 14.4374 14.6954C14.3085 14.2571 14.1796 13.8446 14.0507 13.4321C13.9218 12.9938 13.7929 12.6071 13.6898 12.2204C13.5867 11.8336 13.4835 11.4727 13.3804 11.1375H13.3546C13.2257 11.7305 13.071 12.3235 12.8906 12.9165C12.6843 13.5868 12.4781 14.2571 12.246 14.9532C12.0398 15.6493 11.8335 16.2938 11.6273 16.861ZM23.3835 11.0086C22.9195 11.0344 22.4812 10.854 22.1718 10.5188C21.8624 10.1836 21.682 9.71958 21.7078 9.25552C21.682 8.79146 21.8624 8.35317 22.1976 8.0438C22.5328 7.73442 22.971 7.55396 23.4093 7.55396C23.9507 7.55396 24.3632 7.70864 24.6726 8.0438C24.982 8.37896 25.1367 8.81724 25.1367 9.25552C25.1624 9.71958 24.982 10.1836 24.6468 10.5188C24.3117 10.854 23.8476 11.0344 23.3835 11.0086ZM21.8367 22.9454V12.3493C21.8367 12.2204 21.8882 12.1688 22.0171 12.1688H24.7499C24.8789 12.1688 24.9304 12.2461 24.9304 12.3493V22.9454C24.9304 23.1 24.8789 23.1774 24.7499 23.1774H22.0429C21.914 23.1516 21.8367 23.0743 21.8367 22.9454Z" fill="#FF9A00"/>
</g>
<defs>
<clipPath id="clip0_146_75">
<rect width="33" height="33" fill="white"/>
</clipPath>
</defs>
</svg>
